<?xml version="1.0" standalone="no"?>
<!DOCTYPE svg PUBLIC "-//W3C//DTD SVG 1.1//EN" "http://www.w3.org/Graphics/SVG/1.1/DTD/svg11.dtd">
<svg width="250px" height="50px" version="1.1" xmlns="http://www.w3.org/2000/svg" xmlns:xlink="http://www.w3.org/1999/xlink" xml:space="preserve" style="fill-rule:evenodd;clip-rule:evenodd;stroke-linejoin:round;stroke-miterlimit:1.41421;">
    <g>
        <g>
            <path d="M161.667,14.2679C160.785,16.0264 158.944,16.887 157.554,16.19C156.164,15.493 155.752,13.5025 156.634,11.744C157.516,9.98545 159.358,9.12489 160.748,9.82185C162.137,10.5188 162.549,12.5094 161.667,14.2679Z" style="fill:rgb(229,118,99);"/>
        </g>
        <path d="M135.917,2.589C136.47,0.77 132.124,2.589 132.124,2.589C132.124,2.589 129.15,7.346 127.642,10.539C125.773,10.56 124.081,10.6 122.703,10.664C121.62,10.715 119.889,11.195 119.889,12.836C119.889,15.12 122.091,15.503 123.07,15.477C123.82,15.457 124.624,15.443 125.467,15.434C122.625,22.205 120.102,29.62 118.794,34.282C118.657,34.767 118.597,35.352 118.608,35.995C118.027,37.445 117.658,38.785 116.228,38.567C115.157,38.404 119.533,24.748 118.605,20.759C118.506,20.334 118.135,19.312 117.279,19.23C115.441,19.055 114.506,20.861 114.506,20.861C114.506,20.861 111.651,38.438 109.326,38.356C107.023,38.277 111.13,26.461 112.037,21.993C112.152,21.426 113.037,19.046 111.079,18.863C109.629,18.727 107.829,21.2 106.919,22.167C105.847,23.304 104.022,24.399 103.065,25.001C102.685,22.604 101.542,20.037 98.891,19.225C92.114,17.15 87.547,24.503 86.241,28.039C85.958,28.805 85.642,29.8 85.368,30.922C85.35,30.501 85.311,30.076 85.246,29.651C84.255,23.076 71.109,24.859 71.109,24.859C71.109,24.859 81.224,17.518 81.836,10.054C82.074,7.154 80.123,2.591 72.904,2.591C63.686,2.591 59.643,7.187 57.976,9.975C56.1,13.114 57.839,18.68 60.26,17.437C63.278,15.887 59.448,13.888 61.728,10.585C64.027,7.255 70.24,6.021 72.903,6.628C84.16,9.198 65.195,24.859 65.195,24.859C67.39,19.947 66.944,20.4 72.088,12.297C73.418,10.202 68.813,11.076 68.255,11.766C63.931,17.109 57.487,26.083 58.245,36.946C58.95,47.057 66.18,49.342 70.457,48.35C75.654,47.146 82.523,41.978 84.691,35.496C84.545,39.216 85.548,42.987 89.544,44.434C96.471,46.942 100.951,37.33 102.147,33.299C102.388,32.488 102.662,31.423 102.876,30.244C103.638,29.954 105.087,28.457 105.756,27.915C104.775,32.428 103.196,38.702 103.41,41.252C103.518,42.525 104.233,44.76 107.252,44.76C110.27,44.76 112.123,40.823 112.123,40.823C112.123,40.823 112.394,44.902 115.613,44.76C117.79,44.665 119.222,42.764 120.033,41.216C121.153,43.241 122.916,44.808 125.273,44.69C127.962,44.557 128.86,42.418 129.797,41.192C130.205,42.639 130.929,44.76 133.472,44.76C136.011,44.76 138.579,39.459 138.579,39.459C138.579,39.459 138.848,44.83 142.85,44.76C147.27,44.682 150.567,34.258 151.791,26.743L153.819,26.04C153.819,26.04 146.285,44.76 154.176,44.76C157.025,44.76 159.123,43.047 160.582,41.125C160.615,43.063 160.795,44.614 161.181,45.535C162.13,47.798 164.73,46.82 165.004,44.76C165.487,41.146 166.197,31.097 166.197,31.097C166.197,31.097 175.789,46.364 180.941,46.392C187.243,46.428 184.856,38.132 184.856,38.132C184.856,38.132 183.633,29.996 179.839,31.157C177.763,31.794 182.447,38.921 180.512,39.906C177.769,41.304 171.091,30.424 171.091,30.424C171.091,30.424 178.437,28.522 176.046,22.227C174.333,17.716 169.44,20.637 169.44,20.637C169.44,20.637 182.29,1.438 171.4,1.439C165.974,1.439 163.753,13.005 163.753,13.005C163.753,13.005 161.834,23.769 160.98,33.087C159.907,35.881 158.526,38.358 156.994,38.398C153.139,38.499 158.203,27.709 159.41,23.669C160.389,20.392 159.19,19.919 157.942,19.868C156.365,19.804 153.795,21.139 152.304,22.004C152.309,21.81 152.313,21.623 152.313,21.446C152.313,16.416 144.972,15.437 143.871,20.515C142.77,25.592 146.44,27.122 146.44,27.122C146.44,27.122 144.4,38.398 142.24,38.398C140.321,38.398 143.096,30.811 141.587,28.325C141.145,27.594 138.11,28.865 137.998,29.711C137.184,35.91 132.914,41.898 133.594,36.604C134.278,31.273 136.671,25.027 137.917,20.699C138.446,18.857 137.468,18.252 136.408,18.17C135.177,18.075 134.402,19.349 134.082,19.883C131.46,24.257 129.382,38.399 125.793,38.399C124.44,38.399 124.281,34.044 124.458,32.702C125.082,27.947 128.115,21.528 130.856,15.429C138.087,15.466 146.396,15.621 150.999,15.285C152.054,15.208 154.764,14.499 154.477,12.542C154.258,11.047 153.967,10.589 149.012,10.605C145.215,10.617 138.493,10.593 132.616,10.584C132.613,10.583 135.192,4.976 135.917,2.589ZM69.233,43.333C63.379,43.658 61.404,34.35 62.993,31.586C64.814,28.419 77.906,27.269 79.389,30.608C81.435,35.214 74.689,43.029 69.233,43.333ZM96.917,23.756C98.083,24.122 98.537,25.125 98.888,26.114C96.513,26.269 94.847,25.573 94.826,23.776C95.413,23.702 96.252,23.548 96.917,23.756ZM98.59,32.312C97.897,34.706 95.301,40.413 91.288,38.923C87.176,37.397 88.534,31.518 89.373,29.189C89.766,28.099 90.668,26.403 91.993,25.191C92.073,30.16 96.74,30.448 98.966,30.749C98.851,31.347 98.712,31.888 98.59,32.312ZM148.356,23.1C146.806,23.586 145.91,20.738 147.664,20.738C149.417,20.738 148.356,23.1 148.356,23.1ZM170.496,7.495C173.127,7.495 166.751,19.597 166.751,19.597C166.935,18.332 167.865,7.495 170.496,7.495ZM167.179,26.813C167.179,26.813 170.544,22.481 171.768,23.883C172.992,25.285 169.993,27.061 167.179,26.813Z" style="fill:rgb(229,118,99);fill-rule:nonzero;"/>
    </g>
</svg>
